<svg width="12" height="12" viewBox="0 0 12 12" fill="none" xmlns="http://www.w3.org/2000/svg">
<path d="M1.31319 10.6697H2.23243L7.89558 5.00656L6.97635 4.08732L1.31319 9.75047V10.6697ZM10.7025 4.05449L7.912 1.29678L8.83123 0.377544C9.08293 0.125848 9.39219 0 9.75901 0C10.1254 0 10.4344 0.125848 10.6861 0.377544L11.6054 1.29678C11.8571 1.54848 11.9884 1.85226 11.9993 2.20814C12.0103 2.56358 11.8899 2.86714 11.6382 3.11884L10.7025 4.05449ZM9.75047 5.02297L2.79054 11.9829H0V9.19236L6.95993 2.23243L9.75047 5.02297ZM7.43596 4.54694L6.97635 4.08732L7.89558 5.00656L7.43596 4.54694Z" fill="white"/>
</svg>
