<svg width="24" height="24" viewBox="0 0 24 24" fill="none" xmlns="http://www.w3.org/2000/svg">
<path d="M12.0241 1.0124C12.0543 1.30964 11.9652 1.60672 11.7765 1.83831C11.5877 2.0699 11.3147 2.21704 11.0175 2.24737C9.18037 2.43843 7.43501 3.14608 5.98357 4.28833C4.53214 5.43058 3.43403 6.96069 2.81648 8.70139C2.19893 10.4421 2.0872 12.3221 2.49424 14.1237C2.90128 15.9253 3.81044 17.5747 5.11637 18.8808C6.4223 20.1869 8.07157 21.0963 9.8731 21.5036C11.6746 21.9109 13.5547 21.7994 15.2955 21.1821C17.0363 20.5648 18.5665 19.4669 19.709 18.0157C20.8514 16.5644 21.5593 14.8191 21.7506 12.9821C21.7636 12.8332 21.8061 12.6884 21.8755 12.5561C21.945 12.4238 22.04 12.3066 22.1552 12.2114C22.2704 12.1162 22.4033 12.0448 22.5463 12.0015C22.6893 11.9581 22.8395 11.9437 22.9881 11.9589C23.1368 11.9742 23.2809 12.0188 23.4121 12.0903C23.5434 12.1617 23.6591 12.2586 23.7525 12.3752C23.8459 12.4918 23.9153 12.6258 23.9564 12.7695C23.9976 12.9131 24.0097 13.0635 23.9922 13.2119C23.7575 15.473 22.8869 17.6213 21.4812 19.4078C20.0756 21.1943 18.1924 22.5459 16.05 23.306C13.9076 24.0661 11.5937 24.2035 9.37643 23.7023C7.15914 23.2012 5.12926 22.0819 3.52203 20.4743C1.9148 18.8667 0.796025 16.8366 0.29536 14.6192C-0.205306 12.4018 -0.0673638 10.0879 0.6932 7.94569C1.45376 5.80347 2.80581 3.92064 4.59265 2.51538C6.37949 1.11012 8.52797 0.239975 10.7891 0.0057848C11.0863 -0.0244417 11.3834 0.0646198 11.615 0.253385C11.8466 0.442151 11.9937 0.715166 12.0241 1.0124ZM13.5565 0.913238C13.5909 0.769141 13.6534 0.633244 13.7404 0.513322C13.8274 0.3934 13.9372 0.291808 14.0634 0.214359C14.1897 0.13691 14.3301 0.0851257 14.4764 0.0619683C14.6227 0.0388109 14.7722 0.0447353 14.9162 0.0794027C15.4841 0.214619 16.0385 0.391903 16.5734 0.605245C16.8433 0.721045 17.0574 0.937701 17.17 1.20905C17.2825 1.48039 17.2847 1.78496 17.176 2.05787C17.0672 2.33077 16.8562 2.55042 16.5879 2.67001C16.3196 2.7896 16.0152 2.79968 15.7395 2.69809C15.3005 2.52416 14.8496 2.38157 14.3904 2.27141C14.0999 2.20158 13.8491 2.01929 13.6931 1.76461C13.537 1.50994 13.4869 1.20371 13.5565 0.913238ZM23.3928 7.42316C23.2822 7.14543 23.0658 6.923 22.7913 6.80481C22.5167 6.68661 22.2064 6.68233 21.9287 6.7929C21.651 6.90347 21.4285 7.11985 21.3103 7.39442C21.1921 7.66899 21.1878 7.97927 21.2984 8.25699C21.4712 8.69269 21.6154 9.14341 21.7266 9.60615C21.7963 9.89683 21.9787 10.1479 22.2335 10.3041C22.3597 10.3815 22.4999 10.4332 22.6461 10.4564C22.7923 10.4796 22.9416 10.4738 23.0855 10.4392C23.2295 10.4047 23.3652 10.3422 23.4849 10.2552C23.6047 10.1682 23.7062 10.0585 23.7835 9.93231C23.8609 9.80612 23.9126 9.66593 23.9358 9.51975C23.959 9.37356 23.9531 9.22424 23.9186 9.08031C23.7833 8.51603 23.6076 7.96221 23.3928 7.42316ZM18.4739 2.84383C18.6702 2.61853 18.9479 2.48042 19.246 2.45985C19.544 2.43928 19.8381 2.53795 20.0634 2.73415C20.5247 3.13529 20.9559 3.57099 21.3525 4.03674C21.5462 4.26446 21.6414 4.55978 21.6173 4.85774C21.5932 5.1557 21.4518 5.43188 21.2241 5.62553C20.9963 5.81918 20.701 5.91444 20.4031 5.89035C20.1051 5.86626 19.8289 5.7248 19.6353 5.49708C19.3118 5.11671 18.9602 4.76115 18.5836 4.43337C18.3583 4.23711 18.2202 3.9594 18.1996 3.66131C18.179 3.36323 18.2777 3.06918 18.4739 2.84383ZM12.0286 5.58422C12.0286 5.28537 11.9099 4.99876 11.6985 4.78744C11.4872 4.57613 11.2006 4.45741 10.9018 4.45741C10.6029 4.45741 10.3163 4.57613 10.105 4.78744C9.89369 4.99876 9.77497 5.28537 9.77497 5.58422V13.0962C9.77497 13.7197 10.2798 14.223 10.9018 14.223H15.409C15.7078 14.223 15.9944 14.1043 16.2058 13.893C16.4171 13.6817 16.5358 13.3951 16.5358 13.0962C16.5358 12.7974 16.4171 12.5108 16.2058 12.2995C15.9944 12.0882 15.7078 11.9694 15.409 11.9694H12.0286V5.58422Z" fill="#FFBB38"/>
</svg>
