<svg width="24" height="22" viewBox="0 0 24 22" fill="none" xmlns="http://www.w3.org/2000/svg">
<path d="M16.08 14.4C15.72 14.4 15.36 14.04 15.36 13.68C15.36 13.32 15.72 12.96 16.08 12.96C16.44 12.96 16.8 13.32 16.8 13.68C16.8 14.04 16.44 14.4 16.08 14.4ZM23.76 16.56L19.44 12.24C19.2 12.12 18.96 12 18.72 12H15.36C14.88 12 14.4 12.48 14.4 12.96V16.32C14.4 16.56 14.52 16.8 14.64 17.04L18.96 21.36C19.08 21.48 19.32 21.6 19.68 21.6C20.04 21.6 20.16 21.48 20.4 21.36L23.76 18C23.88 17.88 24 17.64 24 17.28C24 17.04 23.88 16.8 23.76 16.56ZM9.6 0C6.96 0 4.8 2.16 4.8 4.8C4.8 7.44 6.96 9.6 9.6 9.6C12.24 9.6 14.4 7.44 14.4 4.8C14.4 2.16 12.24 0 9.6 0ZM9.6 2.4C10.92 2.4 12 3.48 12 4.8C12 6.12 10.92 7.2 9.6 7.2C8.28 7.2 7.2 6.12 7.2 4.8C7.2 3.48 8.28 2.4 9.6 2.4ZM9.6 10.8C6.36 10.8 0 12.36 0 15.6V19.2H13.44L12.96 18.72C12.48 18.24 12.12 17.64 12 16.92H2.28V15.6C2.28 14.88 6 13.08 9.6 13.08C10.44 13.08 11.28 13.2 12 13.32V12.96C12 12.24 12.24 11.64 12.6 11.16C11.52 10.92 10.44 10.8 9.6 10.8Z" fill="#0A0E45"/>
</svg>
