<svg width="8" height="16" viewBox="0 0 8 16" fill="none" xmlns="http://www.w3.org/2000/svg">
<path d="M1.58525 0.309851L7.79724 7.24628C7.87097 7.32885 7.92307 7.41831 7.95355 7.51465C7.98452 7.61099 8 7.71421 8 7.82431C8 7.93442 7.98452 8.03764 7.95355 8.13398C7.92307 8.23031 7.87097 8.31977 7.79724 8.40235L1.58525 15.3594C1.41321 15.5521 1.19816 15.6484 0.940092 15.6484C0.682027 15.6484 0.46083 15.5452 0.276498 15.3388C0.0921659 15.1323 0 14.8915 0 14.6162C0 14.341 0.0921659 14.1001 0.276498 13.8937L5.69585 7.82431L0.276498 1.75494C0.104455 1.56226 0.0184331 1.32499 0.0184331 1.04313C0.0184331 0.760718 0.110599 0.516292 0.294931 0.309851C0.479262 0.10341 0.694316 0.000188828 0.940092 0.000188828C1.18587 0.000188828 1.40092 0.10341 1.58525 0.309851Z" fill="black" fill-opacity="0.9"/>
</svg>
